<svg xmlns="http://www.w3.org/2000/svg" viewBox="0 0 700 650" width="700">
  <mask id="mask1">
    <rect x="0" y="0" width="700" height="650" fill="white"></rect>
    <circle cx="50" cy="50" r="35" ></circle>
    <circle cx="150" cy="50" r="35" ></circle>
    <circle cx="250" cy="50" r="35" ></circle>
    <circle cx="350" cy="50" r="35" ></circle>
    <circle cx="450" cy="50" r="35" ></circle>
    <circle cx="550" cy="50" r="35" ></circle>
    <circle cx="650" cy="50" r="35" ></circle>
    <circle cx="50" cy="150" r="35" ></circle>
    <circle cx="150" cy="150" r="35" ></circle>
    <circle cx="250" cy="150" r="35" ></circle>
    <circle cx="350" cy="150" r="35" ></circle>
    <circle cx="450" cy="150" r="35" ></circle>
    <circle cx="550" cy="150" r="35" ></circle>
    <circle cx="650" cy="150" r="35" ></circle>
    <circle cx="50" cy="250" r="35" ></circle>
    <circle cx="150" cy="250" r="35" ></circle>
    <circle cx="250" cy="250" r="35" ></circle>
    <circle cx="350" cy="250" r="35" ></circle>
    <circle cx="450" cy="250" r="35" ></circle>
    <circle cx="550" cy="250" r="35" ></circle>
    <circle cx="650" cy="250" r="35" ></circle>
    <circle cx="50" cy="350" r="35" ></circle>
    <circle cx="150" cy="350" r="35" ></circle>
    <circle cx="250" cy="350" r="35" ></circle>
    <circle cx="350" cy="350" r="35" ></circle>
    <circle cx="450" cy="350" r="35" ></circle>
    <circle cx="550" cy="350" r="35" ></circle>
    <circle cx="650" cy="350" r="35" ></circle>
    <circle cx="50" cy="450" r="35" ></circle>
    <circle cx="150" cy="450" r="35" ></circle>
    <circle cx="250" cy="450" r="35" ></circle>
    <circle cx="350" cy="450" r="35" ></circle>
    <circle cx="450" cy="450" r="35" ></circle>
    <circle cx="550" cy="450" r="35" ></circle>
    <circle cx="650" cy="450" r="35" ></circle>
    <circle cx="50" cy="550" r="35" ></circle>
    <circle cx="150" cy="550" r="35" ></circle>
    <circle cx="250" cy="550" r="35" ></circle>
    <circle cx="350" cy="550" r="35" ></circle>
    <circle cx="450" cy="550" r="35" ></circle>
    <circle cx="550" cy="550" r="35" ></circle>
    <circle cx="650" cy="550" r="35" ></circle>
  </mask>
  <mask id="mask2">
    <rect x="0" y="10" width="700" height="650" fill="white"></rect>
    <circle cx="50" cy="60" r="35" ></circle>
    <circle cx="150" cy="60" r="35" ></circle>
    <circle cx="250" cy="60" r="35" ></circle>
    <circle cx="350" cy="60" r="35" ></circle>
    <circle cx="450" cy="60" r="35" ></circle>
    <circle cx="550" cy="60" r="35" ></circle>
    <circle cx="650" cy="60" r="35" ></circle>
    <circle cx="50" cy="160" r="35" ></circle>
    <circle cx="150" cy="160" r="35" ></circle>
    <circle cx="250" cy="160" r="35" ></circle>
    <circle cx="350" cy="160" r="35" ></circle>
    <circle cx="450" cy="160" r="35" ></circle>
    <circle cx="550" cy="160" r="35" ></circle>
    <circle cx="650" cy="160" r="35" ></circle>
    <circle cx="50" cy="260" r="35" ></circle>
    <circle cx="150" cy="260" r="35" ></circle>
    <circle cx="250" cy="260" r="35" ></circle>
    <circle cx="350" cy="260" r="35" ></circle>
    <circle cx="450" cy="260" r="35" ></circle>
    <circle cx="550" cy="260" r="35" ></circle>
    <circle cx="650" cy="260" r="35" ></circle>
    <circle cx="50" cy="360" r="35" ></circle>
    <circle cx="150" cy="360" r="35" ></circle>
    <circle cx="250" cy="360" r="35" ></circle>
    <circle cx="350" cy="360" r="35" ></circle>
    <circle cx="450" cy="360" r="35" ></circle>
    <circle cx="550" cy="360" r="35" ></circle>
    <circle cx="650" cy="360" r="35" ></circle>
    <circle cx="50" cy="460" r="35" ></circle>
    <circle cx="150" cy="460" r="35" ></circle>
    <circle cx="250" cy="460" r="35" ></circle>
    <circle cx="350" cy="460" r="35" ></circle>
    <circle cx="450" cy="460" r="35" ></circle>
    <circle cx="550" cy="460" r="35" ></circle>
    <circle cx="650" cy="460" r="35" ></circle>
    <circle cx="50" cy="560" r="35" ></circle>
    <circle cx="150" cy="560" r="35" ></circle>
    <circle cx="250" cy="560" r="35" ></circle>
    <circle cx="350" cy="560" r="35" ></circle>
    <circle cx="450" cy="560" r="35" ></circle>
    <circle cx="550" cy="560" r="35" ></circle>
    <circle cx="650" cy="560" r="35" ></circle>
  </mask>


  <circle fill="none" stroke="black" stroke-width="10" cx="50" cy="50" r="35" ></circle>
  <circle fill="none" stroke="black" stroke-width="10" cx="150" cy="50" r="35" ></circle>
  <circle fill="none" stroke="black" stroke-width="10" cx="250" cy="50" r="35" ></circle>
  <circle fill="none" stroke="black" stroke-width="10" cx="350" cy="50" r="35" ></circle>
  <circle fill="none" stroke="black" stroke-width="10" cx="450" cy="50" r="35" ></circle>
  <circle fill="none" stroke="black" stroke-width="10" cx="550" cy="50" r="35" ></circle>
  <circle fill="none" stroke="black" stroke-width="10" cx="650" cy="50" r="35" ></circle>
  <circle fill="none" stroke="black" stroke-width="10" cx="50" cy="150" r="35" ></circle>
  <circle fill="none" stroke="black" stroke-width="10" cx="150" cy="150" r="35" ></circle>
  <circle fill="none" stroke="black" stroke-width="10" cx="250" cy="150" r="35" ></circle>
  <circle fill="none" stroke="black" stroke-width="10" cx="350" cy="150" r="35" ></circle>
  <circle fill="none" stroke="black" stroke-width="10" cx="450" cy="150" r="35" ></circle>
  <circle fill="none" stroke="black" stroke-width="10" cx="550" cy="150" r="35" ></circle>
  <circle fill="none" stroke="black" stroke-width="10" cx="650" cy="150" r="35" ></circle>
  <circle fill="none" stroke="black" stroke-width="10" cx="50" cy="250" r="35" ></circle>
  <circle fill="none" stroke="black" stroke-width="10" cx="150" cy="250" r="35" ></circle>
  <circle fill="none" stroke="black" stroke-width="10" cx="250" cy="250" r="35" ></circle>
  <circle fill="none" stroke="black" stroke-width="10" cx="350" cy="250" r="35" ></circle>
  <circle fill="none" stroke="black" stroke-width="10" cx="450" cy="250" r="35" ></circle>
  <circle fill="none" stroke="black" stroke-width="10" cx="550" cy="250" r="35" ></circle>
  <circle fill="none" stroke="black" stroke-width="10" cx="650" cy="250" r="35" ></circle>
  <circle fill="none" stroke="black" stroke-width="10" cx="50" cy="350" r="35" ></circle>
  <circle fill="none" stroke="black" stroke-width="10" cx="150" cy="350" r="35" ></circle>
  <circle fill="none" stroke="black" stroke-width="10" cx="250" cy="350" r="35" ></circle>
  <circle fill="none" stroke="black" stroke-width="10" cx="350" cy="350" r="35" ></circle>
  <circle fill="none" stroke="black" stroke-width="10" cx="450" cy="350" r="35" ></circle>
  <circle fill="none" stroke="black" stroke-width="10" cx="550" cy="350" r="35" ></circle>
  <circle fill="none" stroke="black" stroke-width="10" cx="650" cy="350" r="35" ></circle>
  <circle fill="none" stroke="black" stroke-width="10" cx="50" cy="450" r="35" ></circle>
  <circle fill="none" stroke="black" stroke-width="10" cx="150" cy="450" r="35" ></circle>
  <circle fill="none" stroke="black" stroke-width="10" cx="250" cy="450" r="35" ></circle>
  <circle fill="none" stroke="black" stroke-width="10" cx="350" cy="450" r="35" ></circle>
  <circle fill="none" stroke="black" stroke-width="10" cx="450" cy="450" r="35" ></circle>
  <circle fill="none" stroke="black" stroke-width="10" cx="550" cy="450" r="35" ></circle>
  <circle fill="none" stroke="black" stroke-width="10" cx="650" cy="450" r="35" ></circle>
  <circle fill="none" stroke="black" stroke-width="10" cx="50" cy="550" r="35" ></circle>
  <circle fill="none" stroke="black" stroke-width="10" cx="150" cy="550" r="35" ></circle>
  <circle fill="none" stroke="black" stroke-width="10" cx="250" cy="550" r="35" ></circle>
  <circle fill="none" stroke="black" stroke-width="10" cx="350" cy="550" r="35" ></circle>
  <circle fill="none" stroke="black" stroke-width="10" cx="450" cy="550" r="35" ></circle>
  <circle fill="none" stroke="black" stroke-width="10" cx="550" cy="550" r="35" ></circle>
  <circle fill="none" stroke="black" stroke-width="10" cx="650" cy="550" r="35" ></circle>

  <rect mask="url(#mask2)" x="0" y="10" width="700" height="650" fill="black"></rect>
  <rect mask="url(#mask1)" x="0" y="0" width="700" height="650" fill="white"></rect>
</svg>